<svg xmlns="http://www.w3.org/2000/svg" xmlns:xlink="http://www.w3.org/1999/xlink" aria-hidden="true" role="img" class="iconify iconify--logos" width="35.93" height="32" preserveAspectRatio="xMidYMid meet" viewBox="0 0 256 228"><path fill="#00D8FF" d="M210.483 73.824a171.49 171.49 0 0 0-8.24-2.597c.465-1.9.893-3.777 1.273-5.621c6.238-30.281 2.16-54.676-11.769-62.708c-13.355-7.7-35.196.329-57.254 19.526a171.23 171.23 0 0 0-6.375 5.848a155.866 155.866 0 0 0-4.241-3.917C100.759 3.829 77.587-4.722 64.231 2.978C50.302 11.01 46.224 35.405 52.462 65.686a170.974 170.974 0 0 0 1.273 5.621a171.49 171.49 0 0 0-8.24 2.597C17.309 83.498 0 98.307 0 113.668c0 15.865 18.582 31.778 46.812 41.427a145.52 145.52 0 0 0 6.921 2.165a167.467 167.467 0 0 0-1.373 6.258c-6.238 30.281-2.16 54.676 11.769 62.708c13.364 7.7 35.196-.329 57.254-19.526a145.567 145.567 0 0 0 5.26-4.83a168.064 168.064 0 0 0 5.558 5.108c22.058 19.197 43.899 27.226 57.254 19.526c13.929-8.032 18.007-32.427 11.769-62.708a167.467 167.467 0 0 0-1.373-6.258a145.52 145.52 0 0 0 6.921-2.165c28.23-9.649 46.812-25.562 46.812-41.427c0-15.361-17.309-30.17-45.517-39.844ZM128 155.51c-15.198 0-27.528-12.33-27.528-27.528s12.33-27.528 27.528-27.528s27.528 12.33 27.528 27.528s-12.33 27.528-27.528 27.528Z"></path><path fill="#00D8FF" d="M128 113.668c-7.882 0-14.278 6.396-14.278 14.278s6.396 14.278 14.278 14.278s14.278-6.396 14.278-14.278s-6.396-14.278-14.278-14.278Z"></path></svg> 